HIERARCHY
ROOT root
{
	OFFSET	0	13.1	24.9
	CHANNELS 6  Xposition Yposition Zposition Xrotation Yrotation Zrotation
	JOINT spine_1
	{
		OFFSET	0	9.99999	0
		CHANNELS 3  Xrotation Yrotation Zrotation
		JOINT spine_2
		{
			OFFSET	0	112	-10
			CHANNELS 3  Xrotation Yrotation Zrotation
			JOINT spine_3
			{
				OFFSET	0	206.5	19.3
				CHANNELS 3  Xrotation Yrotation Zrotation
				JOINT spine_4
				{
					OFFSET	0	110.4	14.6
					CHANNELS 3  Xrotation Yrotation Zrotation
					JOINT neck_1
					{
						OFFSET	0	71.8	-50.3
						CHANNELS 3  Xrotation Yrotation Zrotation
						JOINT neck_2
						{
							OFFSET	0	86.2	-25.8
							CHANNELS 3  Xrotation Yrotation Zrotation
							JOINT head_ee
							{
								OFFSET	0	179.8	-8.7
								CHANNELS 3  Xrotation Yrotation Zrotation
								End Site
								{
									OFFSET	1	0	0
								}
							}
						}
					}
					JOINT left_clavicle
					{
						OFFSET	-43.2	22.4	-70.8
						CHANNELS 3  Xrotation Yrotation Zrotation
						JOINT left_shoulder
						{
							OFFSET	-93.9	-5.79999	48.7
							CHANNELS 3  Xrotation Yrotation Zrotation
							JOINT left_elbow
							{
								OFFSET	-291.4	-30.8	15.2
								CHANNELS 3  Xrotation Yrotation Zrotation
								JOINT left_lowarm_twist
								{
									OFFSET	-110.7	-3.89999	13.6
									CHANNELS 3  Xrotation Yrotation Zrotation
									JOINT left_hand
									{
										OFFSET	-110.7	-3.89999	13.6
										CHANNELS 3  Xrotation Yrotation Zrotation
										JOINT left_ee
										{
											OFFSET	-80.8	-5.10001	12.1
											CHANNELS 3  Xrotation Yrotation Zrotation
											End Site
											{
												OFFSET	1	0	0
											}
										}
									}
								}
							}
						}
					}
					JOINT right_clavicle
					{
						OFFSET	43.2	22.4	-70.8
						CHANNELS 3  Xrotation Yrotation Zrotation
						JOINT right_shoulder
						{
							OFFSET	93.9	-5.79999	48.7
							CHANNELS 3  Xrotation Yrotation Zrotation
							JOINT right_elbow
							{
								OFFSET	291.4	-30.8	15.2
								CHANNELS 3  Xrotation Yrotation Zrotation
								JOINT right_lowarm_twist
								{
									OFFSET	110.7	-3.89999	13.6
									CHANNELS 3  Xrotation Yrotation Zrotation
									JOINT right_hand
									{
										OFFSET	110.7	-3.89999	13.6
										CHANNELS 3  Xrotation Yrotation Zrotation
										JOINT right_ee
										{
											OFFSET	80.8	-5.10001	12.1
											CHANNELS 3  Xrotation Yrotation Zrotation
											End Site
											{
												OFFSET	1	0	0
											}
										}
									}
								}
							}
						}
					}
				}
			}
		}
	}
	JOINT left_hip
	{
		OFFSET	-82.8	-127.5	0.300001
		CHANNELS 3  Xrotation Yrotation Zrotation
		JOINT left_knee
		{
			OFFSET	-28.2	-396.7	2.2
			CHANNELS 3  Xrotation Yrotation Zrotation
			JOINT left_ankle
			{
				OFFSET	-11.7	-411.3	35.4
				CHANNELS 3  Xrotation Yrotation Zrotation
				JOINT left_toes
				{
					OFFSET	0	-60	-88.6
					CHANNELS 3  Xrotation Yrotation Zrotation
					JOINT left_foot_ee
					{
						OFFSET	-22.5	-16.5	-42.2
						CHANNELS 3  Xrotation Yrotation Zrotation
						End Site
						{
							OFFSET	1	0	0
						}
					}
				}
			}
		}
	}
	JOINT right_hip
	{
		OFFSET	82.8	-127.5	0.300001
		CHANNELS 3  Xrotation Yrotation Zrotation
		JOINT right_knee
		{
			OFFSET	28.2	-396.7	2.2
			CHANNELS 3  Xrotation Yrotation Zrotation
			JOINT right_ankle
			{
				OFFSET	11.7	-411.3	35.4
				CHANNELS 3  Xrotation Yrotation Zrotation
				JOINT right_toes
				{
					OFFSET	0	-60	-88.6
					CHANNELS 3  Xrotation Yrotation Zrotation
					JOINT right_foot_ee
					{
						OFFSET	22.5	-16.5	-42.2
						CHANNELS 3  Xrotation Yrotation Zrotation
						End Site
						{
							OFFSET	1	0	0
						}
					}
				}
			}
		}
	}
}
MOTION
Frames: 14
Frame Time: 0.02
3177.02 653.055 -1669.29 -13.4775068614 55.5640372994 12.1898029745 2.63658 0.910392 3.39091 2.64271 0.692906 3.44189 2.68334 0.119018 3.50884 2.66679 0.671349 3.44615 -1.74786 13.3863 -8.66307 -0.773908 30.9597 -7.68833 -0.0 0.0 -0.0 -2.99426 23.2646 -1.4267 -39.8256 -18.6557 69.8273 0.676874 -18.5366 0.110459 -37.7117 -2.71115 3.89151 0.954248 8.84252 9.87471 -0.0 0.0 -0.0 13.9977 27.5553 -27.796 29.6075 21.9551 -64.2951 2.88976 55.0525 -1.50623 8.97706 -0.228731 1.12275 1.84386 18.6081 -4.36433 0.0 0.0 0.0 28.2918 -4.35106 -12.7608 2.35648 -0.104188 -0.346556 2.14482 24.9516 -0.325828 -40.1475 0.0 0.0 -0.0 0.0 -0.0 -9.28256 1.72815 6.49913 -5.67016 -0.191581 -0.84876 39.1311 14.6384 5.07681 -16.2479 0.0 0.0 0.0 0.0 0.0 
3127.97180149 655.41 -1664.73904154 -14.2007303233 55.3042360766 12.9116122483 2.82602 0.826118 3.13183 2.83126 0.625261 3.17799 2.86478 0.105731 3.23712 2.85069 0.615387 3.17991 2.47783 12.4953 -7.70551 3.69898 28.3335 -7.90008 -0.0 0.0 -0.0 -2.51827 22.6564 -0.88152 -38.0762 -18.947 68.9152 0.66103 -18.1314 0.105475 -37.582 -2.69775 3.88164 1.25207 12.1398 13.0387 -0.0 0.0 -0.0 13.6645 27.361 -27.0467 27.6311 21.1008 -64.2636 2.86854 54.8541 -1.48886 8.72744 -0.224762 1.09111 1.79175 17.5891 -4.48255 0.0 0.0 0.0 28.0575 -7.13769 -11.534 -2.03119 0.0782874 0.301871 0.50849 21.1743 -0.0762104 -40.1409 0.0 0.0 -0.0 0.0 -0.0 -10.4449 2.77907 7.5928 -5.10148 -0.176171 -0.762848 38.4214 13.3768 4.97451 -16.5853 0.0 0.0 0.0 0.0 0.0 
3106.02757586 658.91 -1664.49945563 -15.4581557154 55.1681883773 14.5911504327 2.93443 0.679514 2.98682 2.93926 0.488168 3.02395 2.96375 0.000311321 3.06307 2.95099 0.483837 3.02465 2.47357 12.712 -8.24773 3.79916 29.1611 -8.52435 -0.0 0.0 -0.0 -2.37543 21.9356 -0.811319 -35.8007 -19.3113 68.0059 0.720866 -19.6514 0.12485 -38.491 -2.79213 3.95019 0.813845 10.9613 9.76107 -0.0 0.0 -0.0 13.1395 27.8514 -25.7677 26.0917 20.8318 -64.2227 2.9047 55.191 -1.51849 8.51586 -0.221289 1.06431 1.89137 17.2111 -5.32139 0.0 0.0 0.0 27.4993 -7.39417 -11.3562 -0.710288 0.0285948 0.105251 -3.31916 23.6518 0.506841 -40.0052 0.0 0.0 -0.0 0.0 -0.0 -9.88926 2.80497 8.09434 -7.8509 -0.242743 -1.17949 38.4701 10.6728 4.90743 -16.7139 0.0 0.0 0.0 0.0 0.0 
3077.62306971 674.776 -1656.72692917 -15.213059106 56.1544879425 13.7611760768 2.88219 0.232164 3.07274 2.88745 0.0362621 3.08128 2.88787 -0.459642 3.04705 2.87492 0.0271139 3.08137 4.87045 12.6488 -8.45388 6.46282 29.0077 -9.44324 -0.0 0.0 -0.0 -1.64265 21.7533 0.197432 -33.7853 -20.0877 67.5434 0.649062 -17.8241 0.101781 -39.7393 -2.92348 4.04187 0.683148 12.9089 9.65061 -0.0 0.0 -0.0 13.1351 27.1551 -25.8477 22.3806 20.0966 -64.6327 2.82123 54.4047 -1.45027 6.54126 -0.184117 0.814823 1.88529 16.4789 -5.61448 0.0 0.0 0.0 26.4371 -10.2207 -8.38201 -6.0205 0.200649 0.90176 2.73683 21.7861 -0.409041 -37.4835 0.0 0.0 -0.0 0.0 -0.0 -5.79362 8.4416 8.16831 -19.8759 -0.297095 -3.02038 39.2451 8.65431 4.93128 -16.9289 0.0 0.0 0.0 0.0 0.0 
3032.44762807 687.85 -1652.39290336 -13.7448285361 54.1148040891 11.1663892255 2.87898 0.585119 2.75171 2.8831 0.408905 2.78333 2.90193 -0.0427358 2.81286 2.89112 0.401864 2.78436 3.06589 15.9546 -5.66094 4.56348 32.6094 -5.6353 -0.0 0.0 -0.0 -0.450408 19.9865 1.66947 -29.8586 -20.8323 65.6765 0.6524 -17.9099 0.102805 -43.206 -3.29839 4.28129 0.113055 20.9402 9.10182 -0.0 0.0 -0.0 13.2878 26.3734 -26.2982 16.3067 21.1898 -63.7884 2.77643 53.9698 -1.41395 0.525398 -0.0182154 0.0646286 1.77594 11.2542 -7.21214 0.0 0.0 0.0 22.0405 -11.2925 -4.55814 -5.46455 0.186108 0.817681 15.3944 26.4049 -2.26614 -32.3128 0.0 0.0 -0.0 0.0 -0.0 -5.03718 20.697 8.87046 -28.7568 -0.0896713 -4.36611 34.7457 -5.88471 4.37371 -18.3617 0.0 0.0 0.0 0.0 0.0 
2976.24597741 702.704 -1664.08121405 -10.4822144342 52.0213736397 5.97004851163 2.51519 0.302509 2.83997 2.51967 0.121257 2.85345 2.52489 -0.356933 2.83365 2.5137 0.0948793 2.85445 -1.69487 18.6901 0.354917 -1.00709 33.5249 2.60053 -0.0 0.0 -0.0 0.659436 17.8638 3.09782 -22.581 -23.2807 60.4297 0.743956 -20.2305 0.132725 -46.9012 -3.71316 4.5111 -0.143756 25.2581 9.19847 -0.0 0.0 -0.0 12.8561 26.1011 -25.3332 9.50719 21.1159 -66.8578 2.0303 45.159 -0.844353 -6.30363 0.264286 -0.760843 2.32987 8.50856 -12.2074 0.0 0.0 0.0 16.4379 -11.4221 0.888195 -5.52084 0.187617 0.826187 25.8049 23.3526 -3.57486 -31.1629 0.0 0.0 -0.0 0.0 -0.0 -1.13268 33.4696 5.34723 -44.0645 0.745384 -6.55767 33.1896 -18.8142 4.3301 -22.4142 0.0 0.0 0.0 0.0 0.0 
2976.23417169 702.704 -1664.55811369 -10.4506232755 51.887547061 5.92993386068 2.51519 0.302509 2.83997 2.51967 0.121257 2.85345 2.52489 -0.356933 2.83365 2.5137 0.0948793 2.85445 -1.69487 18.6901 0.354917 -1.00709 33.5249 2.60053 -0.0 0.0 -0.0 0.659436 17.8638 3.09782 -22.581 -23.2807 60.4297 0.743956 -20.2305 0.132725 -46.9012 -3.71316 4.5111 -0.143756 25.2581 9.19847 -0.0 0.0 -0.0 12.8561 26.1011 -25.3332 9.50719 21.1159 -66.8578 2.0303 45.159 -0.844353 -6.30363 0.264286 -0.760843 2.32987 8.50856 -12.2074 0.0 0.0 0.0 16.4379 -11.4221 0.888195 -5.52084 0.187617 0.826187 25.8049 23.3526 -3.57486 -31.1629 0.0 0.0 -0.0 0.0 -0.0 -1.13268 33.4696 5.34723 -44.0645 0.745384 -6.55767 33.1896 -18.8142 4.3301 -22.4142 0.0 0.0 0.0 0.0 0.0 
2976.22443068 702.704 -1664.99128605 -10.4221427114 51.7659858971 5.89370578293 2.51519 0.302509 2.83997 2.51967 0.121257 2.85345 2.52489 -0.356933 2.83365 2.5137 0.0948793 2.85445 -1.69487 18.6901 0.354917 -1.00709 33.5249 2.60053 -0.0 0.0 -0.0 0.659436 17.8638 3.09782 -22.581 -23.2807 60.4297 0.743956 -20.2305 0.132725 -46.9012 -3.71316 4.5111 -0.143756 25.2581 9.19847 -0.0 0.0 -0.0 12.8561 26.1011 -25.3332 9.50719 21.1159 -66.8578 2.0303 45.159 -0.844353 -6.30363 0.264286 -0.760843 2.32987 8.50856 -12.2074 0.0 0.0 0.0 16.4379 -11.4221 0.888195 -5.52084 0.187617 0.826187 25.8049 23.3526 -3.57486 -31.1629 0.0 0.0 -0.0 0.0 -0.0 -1.13268 33.4696 5.34723 -44.0645 0.745384 -6.55767 33.1896 -18.8142 4.3301 -22.4142 0.0 0.0 0.0 0.0 0.0 
2957.63905299 700.431 -1672.51259019 -8.60729161904 51.947387814 4.15096397819 2.46857 0.179937 2.77929 2.47287 0.00278861 2.78511 2.47221 -0.464973 2.74605 2.46169 -0.025625 2.78499 -2.89769 19.263 1.81468 -2.37166 33.7129 4.55183 -0.0 0.0 -0.0 0.745311 16.8698 3.13582 -20.8643 -24.1138 58.6172 0.786428 -21.2845 0.147779 -47.6662 -3.80083 4.55531 -0.171159 26.5481 9.51807 -0.0 0.0 -0.0 12.8666 26.3967 -25.3223 7.02752 20.607 -66.8117 1.75813 41.0498 -0.658253 -8.83216 0.393589 -1.05722 2.38822 7.75157 -12.9407 0.0 0.0 0.0 14.7058 -12.2086 1.78064 -6.12034 0.203173 0.916873 31.0425 22.3175 -4.16473 -30.0701 0.0 0.0 -0.0 0.0 -0.0 0.390124 35.5549 3.51282 -46.6353 0.94192 -6.90094 33.6622 -20.6953 4.41548 -22.9977 0.0 0.0 0.0 0.0 0.0 
2957.63016363 700.431 -1671.83650733 -8.64122324976 52.1219603755 4.19400344304 2.46857 0.179937 2.77929 2.47287 0.00278861 2.78511 2.47221 -0.464973 2.74605 2.46169 -0.025625 2.78499 -2.89769 19.263 1.81468 -2.37166 33.7129 4.55183 -0.0 0.0 -0.0 0.745311 16.8698 3.13582 -20.8643 -24.1138 58.6172 0.786428 -21.2845 0.147779 -47.6662 -3.80083 4.55531 -0.171159 26.5481 9.51807 -0.0 0.0 -0.0 12.8666 26.3967 -25.3223 7.02752 20.607 -66.8117 1.75813 41.0498 -0.658253 -8.83216 0.393589 -1.05722 2.38822 7.75157 -12.9407 0.0 0.0 0.0 14.7058 -12.2086 1.78064 -6.12034 0.203173 0.916873 31.0425 22.3175 -4.16473 -30.0701 0.0 0.0 -0.0 0.0 -0.0 0.390124 35.5549 3.51282 -46.6353 0.94192 -6.90094 33.6622 -20.6953 4.41548 -22.9977 0.0 0.0 0.0 0.0 0.0 
2943.64087989 703.339 -1672.44874943 -6.74017785329 50.8140208385 2.60807433692 2.27908 0.277642 2.69919 2.28313 0.105388 2.71137 2.28763 -0.359991 2.68945 2.27754 0.0691129 2.71254 -3.41574 19.9938 3.47081 -2.9466 33.918 6.51509 -0.0 0.0 -0.0 0.944882 15.7369 3.34443 -18.8817 -24.6609 57.0661 0.822902 -22.1777 0.161284 -47.6769 -3.80206 4.55592 -0.186801 27.2806 9.69842 -0.0 0.0 -0.0 12.8272 26.4378 -25.2265 5.00523 20.6452 -67.4353 1.60057 38.4071 -0.557521 -10.6297 0.493425 -1.26435 2.54747 8.17291 -13.8613 0.0 0.0 0.0 12.2459 -11.8624 1.81428 -6.2072 0.205349 0.930026 31.8819 22.7499 -4.26727 -30.1293 0.0 0.0 -0.0 0.0 -0.0 1.92909 35.5615 2.75815 -50.4746 1.26375 -7.3966 33.2414 -22.9798 4.42099 -23.5843 0.0 0.0 0.0 0.0 0.0 
2929.9179682 708.123 -1667.73910323 -5.31555960268 51.5943738953 2.04051246416 2.0714 0.296613 2.62679 2.07523 0.128923 2.64033 2.08094 -0.33408 2.62229 2.07135 0.084105 2.64213 -4.01997 19.175 1.97023 -3.63913 33.6894 5.02751 -0.0 0.0 -0.0 1.14138 14.1699 3.52105 -17.3963 -25.8049 55.7599 0.838365 -22.553 0.167167 -47.2298 -3.75075 4.53023 -0.00612003 25.1811 9.9567 -0.0 0.0 -0.0 12.6203 26.1874 -24.7802 2.05527 20.135 -67.6965 1.38352 34.4231 -0.428596 -11.7815 0.5608 -1.39541 2.53804 7.47241 -14.1017 0.0 0.0 0.0 9.85655 -10.5052 2.32667 -5.37573 0.183709 0.804261 36.7737 24.0368 -4.81921 -29.6997 0.0 0.0 -0.0 0.0 -0.0 7.58176 36.9484 -1.86929 -52.7909 1.47382 -7.68498 34.0776 -25.198 4.56869 -24.8502 0.0 0.0 0.0 0.0 0.0 
2914.54718429 708.508 -1653.26183694 -4.97929560626 51.4278750093 2.32029994855 2.03173 0.326604 2.40959 2.03494 0.17266 2.42548 2.04212 -0.255065 2.41821 2.03399 0.12993 2.42814 -3.40384 19.2147 1.283 -2.9262 34.1455 4.13944 -0.0 0.0 -0.0 1.53105 12.6942 4.03886 -16.2632 -26.3672 54.2697 0.845005 -22.7136 0.169723 -47.2784 -3.75632 4.53304 -0.0446357 24.2882 9.40993 -0.0 0.0 -0.0 12.4961 26.5773 -24.449 -0.074476 20.2535 -67.196 1.21561 31.0542 -0.33775 -13.517 0.667276 -1.59028 2.6222 7.12857 -14.8378 0.0 0.0 0.0 8.7247 -9.3871 2.67826 -6.12277 0.203235 0.917242 38.1981 24.2452 -4.96848 -28.6526 0.0 0.0 -0.0 0.0 -0.0 10.676 36.5708 -2.47685 -54.8633 1.67158 -7.93573 34.1247 -25.7226 4.58875 -25.3055 0.0 0.0 0.0 0.0 0.0 
2915.66818194 708.508 -1640.23645984 -5.31670454312 54.2652370264 2.74350709598 2.03173 0.326604 2.40959 2.03494 0.17266 2.42548 2.04212 -0.255065 2.41821 2.03399 0.12993 2.42814 -3.40384 19.2147 1.283 -2.9262 34.1455 4.13944 -0.0 0.0 -0.0 1.53105 12.6942 4.03886 -16.2632 -26.3672 54.2697 0.845005 -22.7136 0.169723 -47.2784 -3.75632 4.53304 -0.0446357 24.2882 9.40993 -0.0 0.0 -0.0 12.4961 26.5773 -24.449 -0.074476 20.2535 -67.196 1.21561 31.0542 -0.33775 -13.517 0.667276 -1.59028 2.6222 7.12857 -14.8378 0.0 0.0 0.0 8.7247 -9.3871 2.67826 -6.12277 0.203235 0.917242 38.1981 24.2452 -4.96848 -28.6526 0.0 0.0 -0.0 0.0 -0.0 10.676 36.5708 -2.47685 -54.8633 1.67158 -7.93573 34.1247 -25.7226 4.58875 -25.3055 0.0 0.0 0.0 0.0 0.0 
